<svg xmlns="http://www.w3.org/2000/svg" width="64" height="64" viewBox="0 0 64 64" fill="none">
  <defs>
    <linearGradient id="bg" x1="8" y1="6" x2="56" y2="58" gradientUnits="userSpaceOnUse">
      <stop stop-color="#1A2B58"/>
      <stop offset="1" stop-color="#0D152A"/>
    </linearGradient>
  </defs>
  <rect x="3" y="3" width="58" height="58" rx="14" fill="url(#bg)" stroke="#314A83" stroke-width="2"/>

  <!-- compact mark optimized for tiny tab size -->
  <rect x="14" y="14" width="22" height="22" rx="6" fill="#D6AF63"/>
  <path d="M18 18h14v4h-5v12h-4V22h-5v-4Z" fill="#0E1830"/>

  <path d="M35 18h12c4 0 7 2 7 5 0 2-1 4-3 5 2 1 4 3 4 6 0 4-3 7-8 7H35V18Zm6 4v4h4c2 0 3-1 3-2s-1-2-3-2h-4Zm0 8v5h5c2 0 3-1 3-2.5S48 30 46 30h-5Z" fill="#9FC2FF"/>
</svg>
